<?xml version="1.0" encoding="UTF-8"?>
<svg width="90px" height="90px" viewBox="0 0 90 90" version="1.1" xmlns="http://www.w3.org/2000/svg" xmlns:xlink="http://www.w3.org/1999/xlink">
    <!-- Generator: Sketch 58 (84663) - https://sketch.com -->
    <title>services/consulting</title>
    <desc>Created with Sketch.</desc>
    <g id="services/consulting" stroke="none" stroke-width="1" fill="none" fill-rule="evenodd">
        <path d="M55,83 C71.9868205,83 80,63.9868205 80,43 C80,22.0131795 65.9868205,7 45,7 C24.0131795,7 10,18.0131795 10,39 C10,59.9868205 38.0131795,83 55,83 Z" id="Oval" fill="#E6FFFF"></path>
        <g id="Group-6" transform="translate(14.000000, 44.000000)" stroke-width="1.5">
            <g id="Group" stroke="#2F3033">
                <circle id="Oval-Copy" cx="16.7786977" cy="8" r="8"></circle>
                <path d="M31.7786977,27.9794149 C30.2398588,21.131925 23.8857526,16 16.2810029,16 C8.66863464,16 2.3094169,21.1422127 0.778697704,28" id="Path" stroke-linecap="round"></path>
            </g>
            <g id="Group-2" transform="translate(32.000000, 7.000000)" stroke="#0EC0CA" stroke-linejoin="round">
                <path d="M9,0 L26,0 C28.209139,-4.05812251e-16 30,1.790861 30,4 L30,17 C30,19.209139 28.209139,21 26,21 L9,21 C6.790861,21 5,19.209139 5,17 L5,9.11254883 L5,9.11254883 L0,4.11474609 L5,4.11108398 L5,4 C5,1.790861 6.790861,4.05812251e-16 9,0 Z" id="Rectangle-Copy-17"></path>
                <polyline id="Line-Copy-3" stroke-linecap="round" points="13 10 16.9414063 14 23 7"></polyline>
            </g>
        </g>
        <g id="Group-5" transform="translate(14.000000, 14.000000)" stroke-width="1.5">
            <g id="Group-Copy" transform="translate(30.000000, 0.000000)" stroke="#2F3033">
                <circle id="Oval-Copy" cx="16.7786977" cy="8" r="8"></circle>
                <path d="M31.7786977,27.9794149 C30.2398588,21.131925 23.8857526,16 16.2810029,16 C8.66863464,16 2.3094169,21.1422127 0.778697704,28" id="Path" stroke-linecap="round"></path>
            </g>
            <g id="Group-4" stroke="#0EC0CA" stroke-linejoin="round">
                <path d="M9,0 L26,0 C28.209139,-4.05812251e-16 30,1.790861 30,4 L30,17 C30,19.209139 28.209139,21 26,21 L9,21 C6.790861,21 5,19.209139 5,17 L5,9.11254883 L5,9.11254883 L0,4.11474609 L5,4.11108398 L5,4 C5,1.790861 6.790861,4.05812251e-16 9,0 Z" id="Rectangle-Copy-17" transform="translate(15.000000, 10.500000) scale(-1, 1) translate(-15.000000, -10.500000) "></path>
                <g id="Group-3" transform="translate(9.000000, 4.500000)" stroke-linecap="round">
                    <path d="M3.5,12.1220312 L3.5,11.9049487" id="Path"></path>
                    <path d="M3.5,9.25073242 L3.5,7 C5.43299662,7 7,5.43299662 7,3.5 C7,1.56700338 5.43299662,0 3.5,0 C1.56700338,0 0,1.56700338 0,3.5" id="Path"></path>
                </g>
            </g>
        </g>
    </g>
</svg>