<?xml version="1.0" encoding="UTF-8"?>
<svg width="90px" height="90px" viewBox="0 0 90 90" version="1.1" xmlns="http://www.w3.org/2000/svg" xmlns:xlink="http://www.w3.org/1999/xlink">
    <!-- Generator: Sketch 58 (84663) - https://sketch.com -->
    <title>services/web</title>
    <desc>Created with Sketch.</desc>
    <g id="services/web" stroke="none" stroke-width="1" fill="none" fill-rule="evenodd">
        <path d="M55,83 C71.9868205,83 80,63.9868205 80,43 C80,22.0131795 65.9868205,7 45,7 C24.0131795,7 10,18.0131795 10,39 C10,59.9868205 38.0131795,83 55,83 Z" id="Oval" fill="#E6FFFF"></path>
        <g id="Group" transform="translate(7.000000, 18.000000)" stroke-width="1.5">
            <path d="M0,11.5 L76,11.5" id="Path-2" stroke="#2F3033"></path>
            <path d="M47,25.5 L68,25.5" id="Path-2-Copy" stroke="#2F3033" stroke-linecap="round"></path>
            <path d="M47,31.5 L68,31.5" id="Path-2-Copy-2" stroke="#2F3033" stroke-linecap="round"></path>
            <path d="M47,37.5 L58,37.5" id="Path-2-Copy-3" stroke="#2F3033" stroke-linecap="round"></path>
            <circle id="Oval" stroke="#2F3033" cx="7" cy="6" r="2"></circle>
            <circle id="Oval-Copy" stroke="#2F3033" cx="15" cy="6" r="2"></circle>
            <circle id="Oval-Copy-2" stroke="#2F3033" cx="22" cy="6" r="2"></circle>
            <rect id="Rectangle" stroke="#2F3033" x="0" y="0" width="76" height="54" rx="4"></rect>
            <polyline id="Path-4" stroke="#0EC0CA" stroke-linecap="round" points="15 24 8 31 15 38"></polyline>
            <polyline id="Path-4-Copy" stroke="#0EC0CA" stroke-linecap="round" transform="translate(34.500000, 31.000000) scale(-1, 1) translate(-34.500000, -31.000000) " points="38 24 31 31 38 38"></polyline>
            <path d="M27,20 L19,42" id="Path-5" stroke="#0EC0CA" stroke-linecap="round"></path>
        </g>
    </g>
</svg>