<svg version="1.1" id="Layer_1" xmlns="http://www.w3.org/2000/svg" xmlns:xlink="http://www.w3.org/1999/xlink" x="0px" y="0px"
	 width="100%" viewBox="0 0 523 669" enable-background="new 0 0 523 669" xml:space="preserve">
<path fill="#1e90ff" opacity="1.000000" stroke="none" 
	d="
M524.000000,288.000000 
	C524.000000,391.020905 524.000000,494.041779 523.531372,597.531372 
	C495.742157,598.000000 468.421478,597.956116 441.101318,598.059143 
	C437.920715,598.071167 435.641968,597.247803 433.321869,594.925110 
	C318.613708,480.090118 203.833847,365.326691 89.067436,250.549835 
	C88.015060,249.497375 86.992409,248.408020 86.033669,247.270340 
	C81.542908,241.941284 78.115585,236.672440 68.899460,237.612808 
	C54.550682,239.076874 39.942631,237.993378 25.444489,238.010345 
	C24.013350,238.012024 22.582378,238.158081 21.297594,238.229050 
	C21.297594,351.678802 21.297594,464.740601 21.297594,577.700317 
	C39.001274,577.700317 56.405838,577.700317 74.140457,577.700317 
	C74.140457,477.334412 74.140457,377.267700 74.140457,275.695496 
	C76.605789,277.692169 78.268791,278.800568 79.647751,280.190735 
	C114.104950,314.927582 148.487244,349.738770 182.974487,384.445740 
	C248.001205,449.886749 313.099579,515.256592 378.062561,580.760803 
	C379.673004,582.384644 380.860504,585.227478 380.876343,587.511292 
	C381.067444,615.006470 381.000000,642.503479 381.000000,670.000000 
	C302.979095,670.000000 224.958206,670.000000 146.468658,669.531372 
	C146.000000,585.429932 146.000000,501.797211 146.000000,417.760254 
	C147.148102,418.830872 148.348160,419.842438 149.425598,420.971039 
	C162.687027,434.862518 175.859802,448.839386 189.197906,462.656677 
	C203.389145,477.357727 217.736023,491.908478 232.007065,506.532562 
	C235.404633,510.014160 237.266708,513.785217 237.147980,519.077209 
	C236.755569,536.566956 236.994492,554.070984 237.010300,571.569519 
	C237.011581,572.999512 237.158203,574.429382 237.227600,575.683716 
	C254.700562,575.683716 271.772736,575.683716 289.000000,575.683716 
	C289.000000,558.383362 289.109192,541.397339 288.870239,524.416260 
	C288.838135,522.136108 287.606262,519.332520 285.992798,517.694336 
	C249.670715,480.815399 213.265869,444.017487 176.772797,407.307587 
	C150.339035,380.716766 123.758064,354.272278 97.225624,327.779663 
	C96.493248,327.048401 95.565361,326.512939 93.947311,325.300842 
	C93.947311,416.755890 93.947311,507.269592 93.947311,598.000000 
	C62.617294,598.000000 31.808647,598.000000 1.000000,598.000000 
	C1.000000,471.645782 1.000000,345.291534 1.468161,218.468658 
	C10.846828,217.666672 19.755466,217.124268 28.668238,217.044678 
	C45.832203,216.891418 62.999439,217.095001 80.163094,216.925140 
	C83.890251,216.888260 86.528511,217.879349 89.235481,220.597778 
	C206.780838,338.641449 324.420197,456.591522 441.992523,574.608337 
	C444.370941,576.995728 446.660553,578.136658 450.144836,578.092773 
	C466.640961,577.885010 483.141113,578.005798 499.639832,577.989868 
	C501.063843,577.988464 502.487732,577.843323 503.664703,577.778503 
	C503.664703,487.589294 503.664703,397.855438 503.664703,308.338318 
	C486.588501,308.338318 469.848969,308.338318 452.459534,308.338318 
	C452.459534,384.327393 452.459534,459.978851 452.459534,536.429260 
	C443.891235,528.402344 435.912964,521.242554 428.284882,513.727295 
	C396.515198,482.427551 364.848846,451.022949 333.148560,419.652802 
	C300.856171,387.696655 268.506775,355.797852 236.296814,323.758850 
	C206.404739,294.025482 176.632614,264.171082 146.941208,234.237534 
	C145.330566,232.613754 144.130188,229.770905 144.121597,227.490326 
	C143.957062,183.827682 144.000000,140.164246 144.000000,96.500969 
	C144.000000,94.736290 144.000000,92.971603 144.000000,91.000000 
	C95.948914,91.000000 48.474457,91.000000 1.000000,91.000000 
	C1.000000,61.015465 1.000000,31.030928 1.000000,1.023196 
	C175.227997,1.023196 349.456024,1.023196 524.000000,1.023196 
	C524.000000,79.353943 524.000000,157.708313 523.531372,236.531342 
	C475.468597,237.000000 427.874481,237.000000 379.334381,237.000000 
	C379.334381,290.612976 379.334381,343.717682 379.334381,396.822357 
	C378.797791,397.037628 378.261169,397.252869 377.724579,397.468109 
	C374.177155,393.510132 370.659027,389.525452 367.076813,385.599243 
	C356.304962,373.793060 345.562317,361.959534 334.707367,350.230072 
	C321.025970,335.446411 307.197845,320.798340 293.561096,305.973907 
	C291.665955,303.913727 289.464844,301.291077 289.192719,298.738251 
	C288.336975,290.709869 288.064270,282.591278 288.045227,274.506470 
	C287.947540,233.015945 287.998047,191.525085 288.009186,150.034348 
	C288.009521,148.762085 288.145599,147.489853 288.273224,145.259491 
	C336.015717,145.259491 383.476227,145.259491 430.979767,145.259491 
	C430.979767,128.144089 431.015930,112.009293 430.888947,95.875793 
	C430.881409,94.918610 429.687378,93.294167 428.834564,93.138947 
	C425.391357,92.512207 421.865753,92.047119 418.370026,92.043587 
	C358.383484,91.982925 298.396851,91.998367 238.410233,92.009926 
	C236.982162,92.010201 235.554123,92.158035 234.204636,92.232697 
	C234.101379,92.960312 234.016144,93.280754 234.016098,93.601212 
	C234.006790,158.586639 233.982880,223.572113 234.105850,288.557281 
	C234.109329,290.387207 235.254837,292.645386 236.593048,293.972778 
	C245.536545,302.844147 254.772278,311.420471 263.736877,320.271088 
	C296.654541,352.770233 329.543701,385.298462 362.364380,417.895538 
	C384.827179,440.205353 407.156586,462.649414 429.555176,485.023926 
	C430.513428,485.981140 431.567902,486.842072 433.228210,488.331604 
	C433.228210,420.998932 433.228210,354.603485 433.228210,288.000000 
	C463.721954,288.000000 493.860962,288.000000 524.000000,288.000000 
M222.500000,21.000000 
	C155.416580,21.000000 88.333168,21.000000 21.271694,21.000000 
	C21.271694,37.946896 21.271694,54.349998 21.271694,71.139908 
	C68.941124,71.139908 116.340202,71.139908 164.000000,71.139908 
	C164.000000,73.328156 164.000000,75.135757 164.000000,76.943367 
	C164.000000,124.099609 163.992081,171.255859 164.035751,218.412064 
	C164.037140,219.925354 164.053207,221.920502 164.941025,222.866180 
	C168.441010,226.594193 172.369293,229.915024 175.999115,233.527161 
	C188.459732,245.927017 200.861481,258.386047 214.131821,271.669495 
	C214.131821,204.057877 214.131821,137.575012 214.131821,71.334564 
	C293.757538,71.334564 372.817383,71.334564 451.669342,71.334564 
	C451.669342,102.738670 451.669342,133.807480 451.669342,165.664719 
	C403.653107,165.664719 355.967102,165.664719 307.800659,165.664719 
	C308.251648,170.528976 308.941345,174.563766 308.950714,178.600143 
	C309.035065,214.925247 308.971619,251.250717 309.079529,287.575684 
	C309.085236,289.491150 309.722717,291.873383 310.952545,293.241364 
	C319.668518,302.936188 328.668793,312.374603 337.468201,321.995605 
	C342.112885,327.073914 346.482483,332.402985 351.082581,337.523315 
	C353.277161,339.966125 355.719696,342.186188 358.049927,344.507172 
	C358.616608,344.209381 359.183319,343.911621 359.750000,343.613861 
	C359.750000,301.456543 359.750000,259.299225 359.750000,216.755341 
	C408.379791,216.755341 456.112122,216.755341 503.693542,216.755341 
	C503.693542,151.303085 503.693542,86.241150 503.693542,21.000000 
	C410.091492,21.000000 316.795746,21.000000 222.500000,21.000000 
M166.000000,580.500000 
	C166.000000,603.589111 166.000000,626.678162 166.000000,649.748596 
	C231.274475,649.748596 295.992249,649.748596 360.999817,649.748596 
	C360.999817,631.205322 361.056366,612.911560 360.896362,594.619629 
	C360.883026,593.097107 359.717407,591.280151 358.564819,590.118103 
	C343.315765,574.744385 327.976349,559.460205 312.643005,544.170288 
	C311.946014,543.475220 311.092133,542.937561 309.258911,541.503052 
	C309.258911,560.376282 309.258911,578.062866 309.258911,595.748413 
	C278.080078,595.748413 247.684570,595.748413 217.000000,595.748413 
	C217.000000,593.871460 217.000000,592.233459 217.000000,590.595520 
	C217.000000,568.772095 217.050690,546.948364 216.910736,525.125793 
	C216.898605,523.230591 216.138107,520.856506 214.865860,519.527527 
	C201.664917,505.737854 188.278549,492.125916 174.975296,478.433899 
	C173.854111,477.279968 173.039932,475.831268 171.943130,474.649353 
	C170.346466,472.928741 168.622589,471.326141 166.000000,468.729858 
	C166.000000,506.670532 166.000000,543.085266 166.000000,580.500000 
z"/>
<!-- <path fill="#FFFFFF" opacity="1.000000" stroke="none" 
	d="
M1.000000,91.468658 
	C48.474457,91.000000 95.948914,91.000000 144.000000,91.000000 
	C144.000000,92.971603 144.000000,94.736290 144.000000,96.500969 
	C144.000000,140.164246 143.957062,183.827682 144.121597,227.490326 
	C144.130188,229.770905 145.330566,232.613754 146.941208,234.237534 
	C176.632614,264.171082 206.404739,294.025482 236.296814,323.758850 
	C268.506775,355.797852 300.856171,387.696655 333.148560,419.652802 
	C364.848846,451.022949 396.515198,482.427551 428.284882,513.727295 
	C435.912964,521.242554 443.891235,528.402344 452.459534,536.429260 
	C452.459534,459.978851 452.459534,384.327393 452.459534,308.338318 
	C469.848969,308.338318 486.588501,308.338318 503.664703,308.338318 
	C503.664703,397.855438 503.664703,487.589294 503.664703,577.778503 
	C502.487732,577.843323 501.063843,577.988464 499.639832,577.989868 
	C483.141113,578.005798 466.640961,577.885010 450.144836,578.092773 
	C446.660553,578.136658 444.370941,576.995728 441.992523,574.608337 
	C324.420197,456.591522 206.780838,338.641449 89.235481,220.597778 
	C86.528511,217.879349 83.890251,216.888260 80.163094,216.925140 
	C62.999439,217.095001 45.832203,216.891418 28.668238,217.044678 
	C19.755466,217.124268 10.846828,217.666672 1.468161,218.000000 
	C1.000000,175.979111 1.000000,133.958206 1.000000,91.468658 
z"/>
<path fill="#FFFFFF" opacity="1.000000" stroke="none" 
	d="
M381.468658,670.000000 
	C381.000000,642.503479 381.067444,615.006470 380.876343,587.511292 
	C380.860504,585.227478 379.673004,582.384644 378.062561,580.760803 
	C313.099579,515.256592 248.001205,449.886749 182.974487,384.445740 
	C148.487244,349.738770 114.104950,314.927582 79.647751,280.190735 
	C78.268791,278.800568 76.605789,277.692169 74.140457,275.695496 
	C74.140457,377.267700 74.140457,477.334412 74.140457,577.700317 
	C56.405838,577.700317 39.001274,577.700317 21.297594,577.700317 
	C21.297594,464.740601 21.297594,351.678802 21.297594,238.229050 
	C22.582378,238.158081 24.013350,238.012024 25.444489,238.010345 
	C39.942631,237.993378 54.550682,239.076874 68.899460,237.612808 
	C78.115585,236.672440 81.542908,241.941284 86.033669,247.270340 
	C86.992409,248.408020 88.015060,249.497375 89.067436,250.549835 
	C203.833847,365.326691 318.613708,480.090118 433.321869,594.925110 
	C435.641968,597.247803 437.920715,598.071167 441.101318,598.059143 
	C468.421478,597.956116 495.742157,598.000000 523.531372,598.000000 
	C524.000000,621.951050 524.000000,645.902161 524.000000,670.000000 
	C476.645874,670.000000 429.291595,670.000000 381.468658,670.000000 
z"/>
<path fill="#FFFFFF" opacity="1.000000" stroke="none" 
	d="
M524.000000,287.531342 
	C493.860962,288.000000 463.721954,288.000000 433.228210,288.000000 
	C433.228210,354.603485 433.228210,420.998932 433.228210,488.331604 
	C431.567902,486.842072 430.513428,485.981140 429.555176,485.023926 
	C407.156586,462.649414 384.827179,440.205353 362.364380,417.895538 
	C329.543701,385.298462 296.654541,352.770233 263.736877,320.271088 
	C254.772278,311.420471 245.536545,302.844147 236.593048,293.972778 
	C235.254837,292.645386 234.109329,290.387207 234.105850,288.557281 
	C233.982880,223.572113 234.006790,158.586639 234.016098,93.601212 
	C234.016144,93.280754 234.101379,92.960312 234.204636,92.232697 
	C235.554123,92.158035 236.982162,92.010201 238.410233,92.009926 
	C298.396851,91.998367 358.383484,91.982925 418.370026,92.043587 
	C421.865753,92.047119 425.391357,92.512207 428.834564,93.138947 
	C429.687378,93.294167 430.881409,94.918610 430.888947,95.875793 
	C431.015930,112.009293 430.979767,128.144089 430.979767,145.259491 
	C383.476227,145.259491 336.015717,145.259491 288.273224,145.259491 
	C288.145599,147.489853 288.009521,148.762085 288.009186,150.034348 
	C287.998047,191.525085 287.947540,233.015945 288.045227,274.506470 
	C288.064270,282.591278 288.336975,290.709869 289.192719,298.738251 
	C289.464844,301.291077 291.665955,303.913727 293.561096,305.973907 
	C307.197845,320.798340 321.025970,335.446411 334.707367,350.230072 
	C345.562317,361.959534 356.304962,373.793060 367.076813,385.599243 
	C370.659027,389.525452 374.177155,393.510132 377.724579,397.468109 
	C378.261169,397.252869 378.797791,397.037628 379.334381,396.822357 
	C379.334381,343.717682 379.334381,290.612976 379.334381,237.000000 
	C427.874481,237.000000 475.468597,237.000000 523.531372,237.000000 
	C524.000000,253.687561 524.000000,270.375122 524.000000,287.531342 
z"/>
<path fill="#FFFFFF" opacity="1.000000" stroke="none" 
	d="
M1.000000,598.468628 
	C31.808647,598.000000 62.617294,598.000000 93.947311,598.000000 
	C93.947311,507.269592 93.947311,416.755890 93.947311,325.300842 
	C95.565361,326.512939 96.493248,327.048401 97.225624,327.779663 
	C123.758064,354.272278 150.339035,380.716766 176.772797,407.307587 
	C213.265869,444.017487 249.670715,480.815399 285.992798,517.694336 
	C287.606262,519.332520 288.838135,522.136108 288.870239,524.416260 
	C289.109192,541.397339 289.000000,558.383362 289.000000,575.683716 
	C271.772736,575.683716 254.700562,575.683716 237.227600,575.683716 
	C237.158203,574.429382 237.011581,572.999512 237.010300,571.569519 
	C236.994492,554.070984 236.755569,536.566956 237.147980,519.077209 
	C237.266708,513.785217 235.404633,510.014160 232.007065,506.532562 
	C217.736023,491.908478 203.389145,477.357727 189.197906,462.656677 
	C175.859802,448.839386 162.687027,434.862518 149.425598,420.971039 
	C148.348160,419.842438 147.148102,418.830872 146.000000,417.760254 
	C146.000000,501.797211 146.000000,585.429932 146.000000,669.531372 
	C97.764297,670.000000 49.528599,670.000000 1.000000,670.000000 
	C1.000000,646.313232 1.000000,622.625305 1.000000,598.468628 
z"/>
<path fill="#FFFFFF" opacity="1.000000" stroke="none" 
	d="
M223.000000,21.000000 
	C316.795746,21.000000 410.091492,21.000000 503.693542,21.000000 
	C503.693542,86.241150 503.693542,151.303085 503.693542,216.755341 
	C456.112122,216.755341 408.379791,216.755341 359.750000,216.755341 
	C359.750000,259.299225 359.750000,301.456543 359.750000,343.613861 
	C359.183319,343.911621 358.616608,344.209381 358.049927,344.507172 
	C355.719696,342.186188 353.277161,339.966125 351.082581,337.523315 
	C346.482483,332.402985 342.112885,327.073914 337.468201,321.995605 
	C328.668793,312.374603 319.668518,302.936188 310.952545,293.241364 
	C309.722717,291.873383 309.085236,289.491150 309.079529,287.575684 
	C308.971619,251.250717 309.035065,214.925247 308.950714,178.600143 
	C308.941345,174.563766 308.251648,170.528976 307.800659,165.664719 
	C355.967102,165.664719 403.653107,165.664719 451.669342,165.664719 
	C451.669342,133.807480 451.669342,102.738670 451.669342,71.334564 
	C372.817383,71.334564 293.757538,71.334564 214.131821,71.334564 
	C214.131821,137.575012 214.131821,204.057877 214.131821,271.669495 
	C200.861481,258.386047 188.459732,245.927017 175.999115,233.527161 
	C172.369293,229.915024 168.441010,226.594193 164.941025,222.866180 
	C164.053207,221.920502 164.037140,219.925354 164.035751,218.412064 
	C163.992081,171.255859 164.000000,124.099609 164.000000,76.943367 
	C164.000000,75.135757 164.000000,73.328156 164.000000,71.139908 
	C116.340202,71.139908 68.941124,71.139908 21.271694,71.139908 
	C21.271694,54.349998 21.271694,37.946896 21.271694,21.000000 
	C88.333168,21.000000 155.416580,21.000000 223.000000,21.000000 
z"/>
<path fill="#FFFFFF" opacity="1.000000" stroke="none" 
	d="
M166.000000,580.000000 
	C166.000000,543.085266 166.000000,506.670532 166.000000,468.729858 
	C168.622589,471.326141 170.346466,472.928741 171.943130,474.649353 
	C173.039932,475.831268 173.854111,477.279968 174.975296,478.433899 
	C188.278549,492.125916 201.664917,505.737854 214.865860,519.527527 
	C216.138107,520.856506 216.898605,523.230591 216.910736,525.125793 
	C217.050690,546.948364 217.000000,568.772095 217.000000,590.595520 
	C217.000000,592.233459 217.000000,593.871460 217.000000,595.748413 
	C247.684570,595.748413 278.080078,595.748413 309.258911,595.748413 
	C309.258911,578.062866 309.258911,560.376282 309.258911,541.503052 
	C311.092133,542.937561 311.946014,543.475220 312.643005,544.170288 
	C327.976349,559.460205 343.315765,574.744385 358.564819,590.118103 
	C359.717407,591.280151 360.883026,593.097107 360.896362,594.619629 
	C361.056366,612.911560 360.999817,631.205322 360.999817,649.748596 
	C295.992249,649.748596 231.274475,649.748596 166.000000,649.748596 
	C166.000000,626.678162 166.000000,603.589111 166.000000,580.000000 
z"/> -->
</svg>